<?xml version="1.0" encoding="utf-8"?>
<svg version="1.1" xmlns:xlink="http://www.w3.org/1999/xlink" width="1384px" height="214px" xmlns="http://www.w3.org/2000/svg">
  <defs>
    <mask fill="white" id="clip18">
      <path d="M 0 214  L 0 0  L 699.134020618557 0  L 734.80412371134 0  L 1384 0  L 1384 214  L 0 214  Z " fill-rule="evenodd" />
    </mask>
  </defs>
  <g transform="matrix(1 0 0 1 -17 -35 )">
    <path d="M 0 214  L 0 0  L 699.134020618557 0  L 734.80412371134 0  L 1384 0  L 1384 214  L 0 214  Z " fill-rule="nonzero" fill="#ffffff" stroke="none" transform="matrix(1 0 0 1 17 35 )" />
    <path d="M 0 214  L 0 0  L 699.134020618557 0  L 734.80412371134 0  L 1384 0  L 1384 214  L 0 214  Z " stroke-width="6" stroke="#797979" fill="none" transform="matrix(1 0 0 1 17 35 )" mask="url(#clip18)" />
  </g>
</svg>