<?xml version="1.0" encoding="utf-8"?>
<svg version="1.1" xmlns:xlink="http://www.w3.org/1999/xlink" width="960px" height="265px" xmlns="http://www.w3.org/2000/svg">
  <defs>
    <mask fill="white" id="clip19">
      <path d="M 0 265  L 0 0  L 484.948453608247 0  L 509.690721649485 0  L 960 0  L 960 265  L 0 265  Z " fill-rule="evenodd" />
    </mask>
  </defs>
  <g transform="matrix(1 0 0 1 -17 -35 )">
    <path d="M 0 265  L 0 0  L 484.948453608247 0  L 509.690721649485 0  L 960 0  L 960 265  L 0 265  Z " fill-rule="nonzero" fill="#ffffff" stroke="none" transform="matrix(1 0 0 1 17 35 )" />
    <path d="M 0 265  L 0 0  L 484.948453608247 0  L 509.690721649485 0  L 960 0  L 960 265  L 0 265  Z " stroke-width="6" stroke="#797979" fill="none" transform="matrix(1 0 0 1 17 35 )" mask="url(#clip19)" />
  </g>
</svg>